<svg width="31" height="31" viewBox="0 0 31 31" fill="none" xmlns="http://www.w3.org/2000/svg">
<g clip-path="url(#clip0_16123_27)">
<path d="M23.7344 0H7.26562C3.25293 0 0 3.25293 0 7.26562V23.7344C0 27.7471 3.25293 31 7.26562 31H23.7344C27.7471 31 31 27.7471 31 23.7344V7.26562C31 3.25293 27.7471 0 23.7344 0Z" fill="black"/>
<path fill-rule="evenodd" clip-rule="evenodd" d="M10.5806 17.8271C10.5806 19.0645 9.81828 20.9393 7.40561 20.9354H4.35938V10.0508H7.46991C9.79673 10.0508 10.5792 11.9229 10.58 13.1611L10.5806 17.8271ZM7.57829 12.0875C7.83307 12.0875 8.08846 12.1829 8.34312 12.3736C8.59717 12.5643 8.72529 12.8512 8.72577 13.2328V17.8146C8.72577 18.1968 8.59862 18.4829 8.34384 18.6737C8.08906 18.8645 7.83368 18.9599 7.57889 18.9599H6.43335V12.0875H7.57829Z" fill="white"/>
<path d="M17.1903 11.9947H13.6924V14.522H15.8306V16.4673H13.6924V18.994H17.191V20.9393H13.1087C12.3761 20.9584 11.7668 20.3781 11.7484 19.6441V11.4138C11.7308 10.6803 12.3104 10.0711 13.0424 10.0527H17.191L17.1903 11.9947ZM23.9945 19.5789C23.1279 21.6018 21.5752 21.1992 20.88 19.5789L18.3504 10.0534H20.4886L22.4392 17.5344L24.3805 10.0534H26.5195L23.9945 19.5789Z" fill="white"/>
</g>
<defs>
<clipPath id="clip0_16123_27">
<rect width="31" height="31" fill="white"/>
</clipPath>
</defs>
</svg>
